<svg id="Layer_1" data-name="Layer 1" xmlns="http://www.w3.org/2000/svg" width="495" height="172.29" viewBox="0 0 495 172.29"><defs><style>.cls-1{fill:white;}</style></defs><title>gbg-group-logo</title><path class="cls-1" d="M213.57,311.48h52.62c16.56,0,24.85-13.88,24.85-27.28s-8.29-24-24.85-24H213.57Zm0-75.66h46c26.8,0,27.28-47.36.49-47.36H213.57Zm46.53-70.74c21.44,0,35.08,12.18,41.41,28,6.82,16.8,4.63,39.32-12.42,51.49,19.49,8.29,26.55,23.29,26.55,39.37,0,25.58-16.81,51.4-49.45,51.4h-77V165.08Z" transform="translate(-2.5 -163.86)"/><path class="cls-1" d="M496.32,235.86h-85l-6.82,23.43h67.24A61.17,61.17,0,1,1,461.3,214.7h28.63a86.59,86.59,0,1,0,6.39,21.16" transform="translate(-2.5 -163.86)"/><path class="cls-1" d="M173.6,235.86h-85l-6.82,23.43h67.25a61.19,61.19,0,1,1-10.49-44.59h28.63a86.59,86.59,0,1,0,6.39,21.16" transform="translate(-2.5 -163.86)"/></svg>